<svg width="130" height="42" viewBox="0 0 130 42" fill="none" xmlns="http://www.w3.org/2000/svg">
<path d="M51.8652 22.248H48.5254V28H46.6406V13.7812H51.3477C52.9492 13.7812 54.1797 14.1458 55.0391 14.875C55.9049 15.6042 56.3379 16.6654 56.3379 18.0586C56.3379 18.944 56.097 19.7155 55.6152 20.373C55.14 21.0306 54.4759 21.5221 53.623 21.8477L56.9629 27.8828V28H54.9512L51.8652 22.248ZM48.5254 20.7148H51.4062C52.3372 20.7148 53.0762 20.474 53.623 19.9922C54.1764 19.5104 54.4531 18.8659 54.4531 18.0586C54.4531 17.1797 54.1895 16.5059 53.6621 16.0371C53.1413 15.5684 52.3861 15.3307 51.3965 15.3242H48.5254V20.7148ZM60.6543 28H58.8477V17.4336H60.6543V28ZM58.7012 14.6309C58.7012 14.3379 58.7891 14.0905 58.9648 13.8887C59.1471 13.6868 59.4141 13.5859 59.7656 13.5859C60.1172 13.5859 60.3841 13.6868 60.5664 13.8887C60.7487 14.0905 60.8398 14.3379 60.8398 14.6309C60.8398 14.9238 60.7487 15.168 60.5664 15.3633C60.3841 15.5586 60.1172 15.6562 59.7656 15.6562C59.4141 15.6562 59.1471 15.5586 58.9648 15.3633C58.7891 15.168 58.7012 14.9238 58.7012 14.6309ZM67.041 25.5488L69.6582 17.4336H71.5039L67.7148 28H66.3379L62.5098 17.4336H64.3555L67.041 25.5488ZM79.6094 28C79.5052 27.7917 79.4206 27.4206 79.3555 26.8867C78.5156 27.7591 77.513 28.1953 76.3477 28.1953C75.306 28.1953 74.4499 27.9023 73.7793 27.3164C73.1152 26.724 72.7832 25.9753 72.7832 25.0703C72.7832 23.9701 73.1999 23.1172 74.0332 22.5117C74.873 21.8997 76.0514 21.5938 77.5684 21.5938H79.3262V20.7637C79.3262 20.1322 79.1374 19.6309 78.7598 19.2598C78.3822 18.8822 77.8255 18.6934 77.0898 18.6934C76.4453 18.6934 75.9049 18.8561 75.4688 19.1816C75.0326 19.5072 74.8145 19.901 74.8145 20.3633H72.998C72.998 19.8359 73.1836 19.3281 73.5547 18.8398C73.9323 18.3451 74.4401 17.9544 75.0781 17.668C75.7227 17.3815 76.429 17.2383 77.1973 17.2383C78.4147 17.2383 79.3685 17.5443 80.0586 18.1562C80.7487 18.7617 81.1068 19.5983 81.1328 20.666V25.5293C81.1328 26.4993 81.2565 27.2708 81.5039 27.8438V28H79.6094ZM76.6113 26.623C77.1777 26.623 77.7148 26.4766 78.2227 26.1836C78.7305 25.8906 79.0983 25.5098 79.3262 25.041V22.873H77.9102C75.6966 22.873 74.5898 23.5208 74.5898 24.8164C74.5898 25.3828 74.7786 25.8255 75.1562 26.1445C75.5339 26.4635 76.0189 26.623 76.6113 26.623ZM85.9277 28H84.1211V13H85.9277V28Z" fill="white"/>
<path d="M99.5703 23.4883C99.3945 24.9922 98.8379 26.1543 97.9004 26.9746C96.9694 27.7884 95.7292 28.1953 94.1797 28.1953C92.5 28.1953 91.1523 27.5931 90.1367 26.3887C89.1276 25.1842 88.623 23.5729 88.623 21.5547V20.1875C88.623 18.8659 88.8574 17.7038 89.3262 16.7012C89.8014 15.6986 90.472 14.9303 91.3379 14.3965C92.2038 13.8561 93.2064 13.5859 94.3457 13.5859C95.8561 13.5859 97.0671 14.0091 97.9785 14.8555C98.89 15.6953 99.4206 16.8607 99.5703 18.3516H97.6855C97.5228 17.2188 97.168 16.3984 96.6211 15.8906C96.0807 15.3828 95.3223 15.1289 94.3457 15.1289C93.1478 15.1289 92.207 15.5716 91.5234 16.457C90.8464 17.3424 90.5078 18.6022 90.5078 20.2363V21.6133C90.5078 23.1562 90.8301 24.3835 91.4746 25.2949C92.1191 26.2064 93.0208 26.6621 94.1797 26.6621C95.2214 26.6621 96.0189 26.4277 96.5723 25.959C97.1322 25.4837 97.5033 24.6602 97.6855 23.4883H99.5703ZM104.561 13.7812L109.209 25.3828L113.857 13.7812H116.289V28H114.414V22.4629L114.59 16.4863L109.922 28H108.486L103.828 16.5156L104.014 22.4629V28H102.139V13.7812H104.561ZM123.789 21.6621C122.181 21.1999 121.009 20.6335 120.273 19.9629C119.544 19.2858 119.18 18.4525 119.18 17.4629C119.18 16.3431 119.626 15.4186 120.518 14.6895C121.416 13.9538 122.581 13.5859 124.014 13.5859C124.99 13.5859 125.859 13.7747 126.621 14.1523C127.389 14.5299 127.982 15.0508 128.398 15.7148C128.822 16.3789 129.033 17.1048 129.033 17.8926H127.148C127.148 17.0332 126.875 16.3594 126.328 15.8711C125.781 15.3763 125.01 15.1289 124.014 15.1289C123.089 15.1289 122.367 15.334 121.846 15.7441C121.331 16.1478 121.074 16.7109 121.074 17.4336C121.074 18.013 121.318 18.5046 121.807 18.9082C122.301 19.3053 123.138 19.6699 124.316 20.002C125.501 20.334 126.426 20.7018 127.09 21.1055C127.76 21.5026 128.255 21.9681 128.574 22.502C128.9 23.0358 129.062 23.6641 129.062 24.3867C129.062 25.5391 128.613 26.4635 127.715 27.1602C126.816 27.8503 125.615 28.1953 124.111 28.1953C123.135 28.1953 122.223 28.0098 121.377 27.6387C120.531 27.2611 119.876 26.7467 119.414 26.0957C118.958 25.4447 118.73 24.7057 118.73 23.8789H120.615C120.615 24.7383 120.931 25.4186 121.562 25.9199C122.201 26.4147 123.05 26.6621 124.111 26.6621C125.101 26.6621 125.859 26.4603 126.387 26.0566C126.914 25.653 127.178 25.1029 127.178 24.4062C127.178 23.7096 126.934 23.1725 126.445 22.7949C125.957 22.4108 125.072 22.0332 123.789 21.6621Z" fill="#63B3ED"/>
<path d="M13.0467 28.9068L13.2374 10.0503L31.0734 16.1724L13.0467 28.9068Z" stroke="#EBF8FF" stroke-width="2"/>
<path d="M10.7387 25.6397L28.5747 31.7618L28.7654 12.9053L10.7387 25.6397Z" stroke="#EBF8FF" stroke-width="2"/>
</svg>
