<svg width="1131" height="705" viewBox="0 0 1131 705" fill="none" xmlns="http://www.w3.org/2000/svg">
<g filter="url(#filter0_d_1_391)">
<rect x="4" width="1123" height="697" fill="#FFFCFE"/>
</g>
<rect x="4" width="1123" height="80" fill="#2D3748"/>
<rect x="4" y="80" width="290" height="617" fill="#EDF2F7"/>
<circle cx="1064" cy="40" r="20" fill="#C4C4C4"/>
<rect x="321" y="194" width="763" height="76" fill="#EDF2F7"/>
<rect x="321" y="295" width="763" height="76" fill="#EDF2F7"/>
<rect x="321" y="400" width="763" height="76" fill="#EDF2F7"/>
<rect x="321" y="501" width="763" height="76" fill="#EDF2F7"/>
<rect x="321" y="131" width="75" height="12" fill="#2A4365"/>
<rect x="90" y="209" width="119" height="12" fill="#2A4365"/>
<rect x="90" y="239" width="119" height="12" fill="#2A4365"/>
<rect x="90" y="269" width="119" height="12" fill="#2A4365"/>
<rect x="90" y="299" width="119" height="12" fill="#2A4365"/>
<rect x="90" y="328" width="119" height="12" fill="#2A4365"/>
<rect x="90" y="358" width="119" height="12" fill="#2A4365"/>
<rect x="90" y="388" width="119" height="12" fill="#2A4365"/>
<rect x="90" y="446" width="119" height="12" fill="#2A4365"/>
<rect x="90" y="476" width="119" height="12" fill="#2A4365"/>
<rect x="90" y="506" width="119" height="12" fill="#2A4365"/>
<rect x="90" y="179" width="66" height="12" fill="#63B3ED"/>
<rect x="90" y="417" width="66" height="12" fill="#63B3ED"/>
<rect x="351" y="219" width="145" height="12" fill="#2A4365"/>
<rect x="351" y="238" width="89" height="8" fill="#CBD5E0"/>
<rect x="351" y="320" width="145" height="12" fill="#2A4365"/>
<rect x="800" y="323" width="47" height="12" fill="#2A4365"/>
<rect x="351" y="339" width="89" height="8" fill="#CBD5E0"/>
<rect x="857" y="325" width="26" height="8" fill="#CBD5E0"/>
<rect x="800" y="226" width="47" height="12" fill="#2A4365"/>
<rect x="857" y="228" width="26" height="8" fill="#CBD5E0"/>
<rect x="800" y="432" width="47" height="12" fill="#2A4365"/>
<rect x="857" y="434" width="26" height="8" fill="#CBD5E0"/>
<rect x="800" y="532" width="47" height="12" fill="#2A4365"/>
<rect x="857" y="534" width="26" height="8" fill="#CBD5E0"/>
<rect x="351" y="424" width="145" height="12" fill="#2A4365"/>
<rect x="351" y="443" width="89" height="8" fill="#CBD5E0"/>
<rect x="351" y="528" width="145" height="12" fill="#2A4365"/>
<rect x="351" y="547" width="89" height="8" fill="#CBD5E0"/>
<rect x="581" y="131" width="75" height="12" fill="#2A4365"/>
<rect x="581" y="224" width="86" height="17" fill="#9AE6B4"/>
<rect x="581" y="322" width="86" height="17" fill="#FEB2B2"/>
<rect x="581" y="431" width="86" height="17" fill="#9AE6B4"/>
<rect x="581" y="531" width="86" height="17" fill="#FBD38D"/>
<rect x="800" y="131" width="75" height="12" fill="#2A4365"/>
<rect x="990" y="124" width="92" height="27" rx="5" fill="#2A4365"/>
<line x1="323" y1="171.5" x2="1082" y2="171.5" stroke="#E2E8F0"/>
<circle cx="1009" cy="232" r="3" fill="#718096"/>
<circle cx="1021" cy="232" r="3" fill="#718096"/>
<circle cx="1033" cy="232" r="3" fill="#718096"/>
<circle cx="1012" cy="333" r="3" fill="#718096"/>
<circle cx="1024" cy="333" r="3" fill="#718096"/>
<circle cx="1036" cy="333" r="3" fill="#718096"/>
<circle cx="1012" cy="439" r="3" fill="#718096"/>
<circle cx="1024" cy="439" r="3" fill="#718096"/>
<circle cx="1036" cy="439" r="3" fill="#718096"/>
<circle cx="1012" cy="539" r="3" fill="#718096"/>
<circle cx="1024" cy="539" r="3" fill="#718096"/>
<circle cx="1036" cy="539" r="3" fill="#718096"/>
<circle cx="228" cy="246" r="5" fill="#F56565"/>
<circle cx="77" cy="245" r="5" fill="#A0AEC0"/>
<circle cx="77" cy="215" r="5" fill="#A0AEC0"/>
<circle cx="77" cy="306" r="5" fill="#A0AEC0"/>
<circle cx="77" cy="276" r="5" fill="#A0AEC0"/>
<circle cx="77" cy="364" r="5" fill="#A0AEC0"/>
<circle cx="77" cy="334" r="5" fill="#A0AEC0"/>
<circle cx="77" cy="453" r="5" fill="#A0AEC0"/>
<circle cx="77" cy="482" r="5" fill="#A0AEC0"/>
<circle cx="77" cy="512" r="5" fill="#A0AEC0"/>
<circle cx="77" cy="395" r="5" fill="#A0AEC0"/>
<circle cx="639" cy="638" r="15" fill="#2A4365"/>
<circle cx="678" cy="638" r="15" fill="#E2E8F0"/>
<circle cx="717" cy="638" r="15" fill="#E2E8F0"/>
<path d="M640.266 632.602V644H638.016V635.195L635.312 636.055V634.281L640.023 632.602H640.266Z" fill="#F7FAFC"/>
<path d="M681.562 642.242V644H673.781V642.5L677.461 638.555C677.831 638.143 678.122 637.781 678.336 637.469C678.549 637.151 678.703 636.867 678.797 636.617C678.896 636.362 678.945 636.12 678.945 635.891C678.945 635.547 678.888 635.253 678.773 635.008C678.659 634.758 678.49 634.565 678.266 634.43C678.047 634.294 677.776 634.227 677.453 634.227C677.109 634.227 676.812 634.31 676.562 634.477C676.318 634.643 676.13 634.875 676 635.172C675.875 635.469 675.812 635.805 675.812 636.18H673.555C673.555 635.503 673.716 634.883 674.039 634.32C674.362 633.753 674.818 633.302 675.406 632.969C675.995 632.63 676.693 632.461 677.5 632.461C678.297 632.461 678.969 632.591 679.516 632.852C680.068 633.107 680.484 633.477 680.766 633.961C681.052 634.44 681.195 635.013 681.195 635.68C681.195 636.055 681.135 636.422 681.016 636.781C680.896 637.135 680.724 637.49 680.5 637.844C680.281 638.193 680.016 638.547 679.703 638.906C679.391 639.266 679.044 639.638 678.664 640.023L676.688 642.242H681.562Z" fill="#2C5282"/>
<path d="M715.086 637.336H716.289C716.674 637.336 716.992 637.271 717.242 637.141C717.492 637.005 717.677 636.818 717.797 636.578C717.922 636.333 717.984 636.049 717.984 635.727C717.984 635.435 717.927 635.177 717.812 634.953C717.703 634.724 717.534 634.547 717.305 634.422C717.076 634.292 716.786 634.227 716.438 634.227C716.161 634.227 715.906 634.281 715.672 634.391C715.438 634.5 715.25 634.654 715.109 634.852C714.969 635.049 714.898 635.289 714.898 635.57H712.641C712.641 634.945 712.807 634.401 713.141 633.938C713.479 633.474 713.932 633.112 714.5 632.852C715.068 632.591 715.693 632.461 716.375 632.461C717.146 632.461 717.82 632.586 718.398 632.836C718.977 633.081 719.427 633.443 719.75 633.922C720.073 634.401 720.234 634.995 720.234 635.703C720.234 636.062 720.151 636.411 719.984 636.75C719.818 637.083 719.578 637.385 719.266 637.656C718.958 637.922 718.583 638.135 718.141 638.297C717.698 638.453 717.201 638.531 716.648 638.531H715.086V637.336ZM715.086 639.047V637.883H716.648C717.268 637.883 717.812 637.953 718.281 638.094C718.75 638.234 719.143 638.438 719.461 638.703C719.779 638.964 720.018 639.273 720.18 639.633C720.341 639.987 720.422 640.38 720.422 640.812C720.422 641.344 720.32 641.818 720.117 642.234C719.914 642.646 719.628 642.995 719.258 643.281C718.893 643.568 718.466 643.786 717.977 643.938C717.487 644.083 716.953 644.156 716.375 644.156C715.896 644.156 715.424 644.091 714.961 643.961C714.503 643.826 714.086 643.625 713.711 643.359C713.341 643.089 713.044 642.75 712.82 642.344C712.602 641.932 712.492 641.445 712.492 640.883H714.75C714.75 641.174 714.823 641.435 714.969 641.664C715.115 641.893 715.315 642.073 715.57 642.203C715.831 642.333 716.12 642.398 716.438 642.398C716.797 642.398 717.104 642.333 717.359 642.203C717.62 642.068 717.818 641.88 717.953 641.641C718.094 641.396 718.164 641.112 718.164 640.789C718.164 640.372 718.089 640.039 717.938 639.789C717.786 639.534 717.57 639.346 717.289 639.227C717.008 639.107 716.674 639.047 716.289 639.047H715.086Z" fill="#2C5282"/>
<defs>
<filter id="filter0_d_1_391" x="0" y="0" width="1131" height="705" filterUnits="userSpaceOnUse" color-interpolation-filters="sRGB">
<feFlood flood-opacity="0" result="BackgroundImageFix"/>
<feColorMatrix in="SourceAlpha" type="matrix" values="0 0 0 0 0 0 0 0 0 0 0 0 0 0 0 0 0 0 127 0" result="hardAlpha"/>
<feOffset dy="4"/>
<feGaussianBlur stdDeviation="2"/>
<feColorMatrix type="matrix" values="0 0 0 0 0 0 0 0 0 0 0 0 0 0 0 0 0 0 0.25 0"/>
<feBlend mode="normal" in2="BackgroundImageFix" result="effect1_dropShadow_1_391"/>
<feBlend mode="normal" in="SourceGraphic" in2="effect1_dropShadow_1_391" result="shape"/>
</filter>
</defs>
</svg>
